<svg width="1925" height="50" viewBox="0 0 1925 50" fill="none" xmlns="http://www.w3.org/2000/svg">
<path opacity="0.15" d="M1920.5 49.8334L1924.34 3.33337C1626.74 -2.66663 1329.14 25.8334 1127.54 30.6667C930.471 35.3917 841.46 25.3334 682.1 25.5C528.5 25.6667 409.46 34.3334 242.42 38.8334C116.583 42.2234 48.5 41.3334 0.5 40.7684V49.8334H1920.5Z" fill="white"/>
<path opacity="0.3" d="M1920.5 47.6667L1924.34 5.6667C1622.9 -1.49997 1344.5 29.6667 1146.74 35.3334C952.609 40.8967 841.46 27.5 682.1 27.6667C528.5 27.8334 403.527 36.6784 242.42 42.1667C117.217 46.4317 42.6056 44.9534 0.5 43.935V47.6667H1920.5Z" fill="white"/>
<path d="M1920.5 50L1922.42 11.6183C1505.78 9.49998 1345.52 33.1433 1146.74 37.6666C948.98 42.1666 812.66 32.6666 653.3 32.8333C499.7 33 403.527 39.0116 242.42 44.5C124.858 48.5 35.06 47.1016 0.5 46.2683V50H1920.5Z" fill="white"/>
</svg>
