<svg width="61" height="60" viewBox="0 0 61 60" fill="none" xmlns="http://www.w3.org/2000/svg">
<path d="M56.6025 31.1981H4.1025C3.41437 31.1981 2.85187 30.6356 2.85187 29.9475C2.85187 29.2594 3.41437 28.6969 4.1025 28.6969H56.6025C57.2906 28.6969 57.8531 29.2594 57.8531 29.9475C57.8531 30.6356 57.2906 31.1981 56.6025 31.1981ZM51.6019 13.6969H9.10125C8.41312 13.6969 7.85062 13.1344 7.85062 12.4462C7.85062 11.7581 8.41312 11.1956 9.10125 11.1956H51.6019C52.29 11.1956 52.8525 11.7581 52.8525 12.4462C52.8525 13.1344 52.29 13.6969 51.6019 13.6969ZM51.6019 48.6975H9.10125C8.41312 48.6975 7.85062 48.135 7.85062 47.4469C7.85062 46.7587 8.41312 46.1962 9.10125 46.1962H51.6019C52.29 46.1962 52.8525 46.7587 52.8525 47.4469C52.8525 48.135 52.29 48.6975 51.6019 48.6975ZM30.405 57.5531C30.0375 57.5531 29.6756 57.3937 29.4244 57.0825C28.995 56.5406 29.0812 55.7569 29.6194 55.3256C38.1825 48.4762 43.0237 38.1656 42.5737 27.7462C42.1631 18.2981 37.4737 9.90562 29.7094 4.73437C29.1337 4.35187 28.98 3.5775 29.3625 3.00375C29.7394 2.43187 30.5175 2.27062 31.0931 2.65312C39.5306 8.27625 44.6231 17.3887 45.0731 27.6375C45.555 38.8444 40.365 49.9294 31.1812 57.2775C30.9562 57.4631 30.675 57.5531 30.405 57.5531ZM30.4031 57.5531C30.1312 57.5531 29.85 57.4631 29.6212 57.2812C20.4394 49.9369 15.2456 38.8537 15.7331 27.6469C16.1775 17.3887 21.2737 8.28375 29.7075 2.6625C30.2794 2.28562 31.0575 2.43187 31.44 3.01312C31.8206 3.585 31.6669 4.365 31.0894 4.74375C23.3287 9.91687 18.6394 18.3056 18.2287 27.7556C17.7769 38.175 22.6181 48.4856 31.1812 55.3312C31.7194 55.7681 31.8056 56.5519 31.3762 57.0881C31.1306 57.3956 30.7687 57.555 30.4012 57.555L30.4031 57.5531ZM30.405 58.7494C14.5519 58.7494 1.65562 45.8494 1.65562 30C1.65562 14.145 14.5537 1.25063 30.405 1.25063C46.2544 1.25063 59.1544 14.145 59.1544 30C59.1544 45.8494 46.2544 58.7494 30.405 58.7494ZM30.405 3.75C15.93 3.75 4.155 15.5231 4.155 30C4.155 44.4731 15.93 56.25 30.405 56.25C44.8781 56.25 56.655 44.4731 56.655 30C56.655 15.5231 44.8781 3.75 30.405 3.75Z" fill="#8A348E"/>
</svg>
