<svg width="29" height="30" viewBox="0 0 29 30" fill="none" xmlns="http://www.w3.org/2000/svg">
<rect width="29" height="29" transform="translate(0 0.0600586)" fill="black" fill-opacity="0.25"/>
<path d="M18.3965 16.3159C18.3965 16.3797 18.3737 16.439 18.3281 16.4937L17.9316 16.8765C17.877 16.9312 17.8177 16.9585 17.7539 16.9585C17.681 16.9585 17.6217 16.9312 17.5762 16.8765L14.5 13.814L11.4375 16.8765C11.3828 16.9312 11.319 16.9585 11.2461 16.9585C11.1823 16.9585 11.123 16.9312 11.0684 16.8765L10.6855 16.4937C10.6309 16.439 10.6035 16.3797 10.6035 16.3159C10.6035 16.243 10.6309 16.1792 10.6855 16.1245L14.3223 12.4878C14.377 12.4331 14.4362 12.4058 14.5 12.4058C14.5729 12.4058 14.6322 12.4331 14.6777 12.4878L18.3281 16.1245C18.3737 16.1792 18.3965 16.243 18.3965 16.3159Z" fill="white"/>
</svg>
