<svg width="17" height="16" viewBox="0 0 17 16" fill="none" xmlns="http://www.w3.org/2000/svg">
<path d="M9.54813 3C9.73563 3 9.89708 3.0625 10.0325 3.1875L14.6888 7.85938C14.8242 7.98438 14.8919 8.14062 14.8919 8.32812C14.8919 8.51562 14.8242 8.67708 14.6888 8.8125L10.0325 13.4688C9.89708 13.6042 9.73563 13.6719 9.54813 13.6719C9.36063 13.6719 9.20438 13.6042 9.07938 13.4688C8.95438 13.3438 8.89188 13.1875 8.89188 13C8.89188 12.8125 8.95438 12.6562 9.07938 12.5312L12.6106 9H2.22C2.0325 9 1.87625 8.93229 1.75125 8.79688C1.61583 8.67188 1.54813 8.51562 1.54813 8.32812C1.54813 8.15104 1.61583 7.99479 1.75125 7.85938C1.87625 7.73438 2.0325 7.67188 2.22 7.67188H12.6106L9.07938 4.14062C8.95438 4.01562 8.89188 3.85938 8.89188 3.67188C8.89188 3.47396 8.95438 3.3125 9.07938 3.1875C9.20438 3.0625 9.36063 3 9.54813 3Z" fill="white"/>
</svg>
