<svg width="61" height="60" viewBox="0 0 61 60" fill="none" xmlns="http://www.w3.org/2000/svg">
<path d="M7.245 27.5906C6.54187 27.5906 5.84812 27.4706 5.18812 27.2325C2.04375 26.0981 0.412498 22.6256 1.545 19.4775C1.89 18.5194 2.28 17.6006 2.71687 16.6931C4.10625 13.7925 7.86937 12.45 10.7944 13.8506C12.255 14.55 13.3537 15.7781 13.8919 17.3006C14.43 18.8306 14.3419 20.475 13.6387 21.93C13.3819 22.4719 13.1494 23.0306 12.9412 23.5969C12.0806 25.98 9.79125 27.5887 7.24312 27.5887L7.245 27.5906ZM8.1825 15.6731C6.7875 15.6731 5.50312 16.4813 4.89937 17.7375C4.50187 18.5756 4.14187 19.4194 3.825 20.3081C3.14437 22.1888 4.125 24.2831 6.01312 24.96C7.85062 25.6219 10.0031 24.6056 10.6631 22.7719C10.8975 22.1269 11.1637 21.5044 11.4562 20.8875C11.8762 20.0156 11.9287 19.0219 11.6119 18.1106C11.2875 17.1975 10.6275 16.4606 9.75187 16.0425C9.25875 15.7819 8.73 15.6731 8.18437 15.6731H8.1825ZM7.27687 44.1619C4.74375 44.1619 2.45625 42.5662 1.58625 40.1869C1.23937 39.2437 0.939373 38.2762 0.688123 37.2994C0.290623 35.7337 0.524998 34.1025 1.34812 32.7075C2.175 31.3125 3.49312 30.3281 5.06062 29.9325C8.24625 29.1225 11.6212 31.1306 12.4275 34.305C12.5794 34.89 12.7575 35.4675 12.96 36.0281C13.5169 37.5412 13.4475 39.1931 12.7669 40.6575C12.0862 42.1256 10.875 43.2394 9.35437 43.7944C8.685 44.04 7.98562 44.1619 7.27687 44.1619ZM6.57 32.1581C6.26812 32.1581 5.96437 32.205 5.66812 32.2725C4.72312 32.5181 3.93562 33.1069 3.435 33.9431C2.94 34.7775 2.7975 35.7562 3.03937 36.7031C3.27 37.5975 3.54187 38.4862 3.8625 39.36C4.53187 41.19 6.69187 42.195 8.5275 41.5256C9.43687 41.19 10.1644 40.5225 10.5731 39.6431C10.98 38.7675 11.025 37.7775 10.6875 36.87C10.455 36.225 10.2525 35.58 10.0819 34.9144C9.675 33.285 8.22937 32.1581 6.57 32.1581ZM47.7619 21.5494C47.5725 21.5494 47.3794 21.4969 47.2012 21.405C46.3369 20.9475 45.5831 20.2819 45.0319 19.4775C44.655 18.9225 44.7712 18.1519 45.3112 17.7694C45.8569 17.3794 46.5881 17.49 46.9781 18.0244C47.0006 18.0544 47.0475 18.1294 47.0625 18.1538C47.3625 18.5944 47.805 18.9844 48.33 19.2619C48.9206 19.5712 49.1475 20.31 48.8344 20.895C48.6187 21.3169 48.2006 21.5494 47.7619 21.5494ZM52.2825 21.5456C51.8456 21.5456 51.4275 21.3075 51.2119 20.895C50.8987 20.3081 51.1275 19.5731 51.7144 19.26C51.8362 19.2056 51.9487 19.1269 52.065 19.05C52.4531 18.7894 52.7681 18.4669 53.025 18.0956C53.4056 17.5388 54.165 17.4038 54.7106 17.7825C55.2637 18.1594 55.395 18.9131 55.0237 19.4644C54.5981 20.0737 54.0731 20.6025 53.4581 21.03C53.2725 21.165 53.0662 21.285 52.8506 21.3975C52.665 21.5044 52.47 21.5456 52.2825 21.5456ZM43.7381 15.9169C43.1325 15.9169 42.6112 15.4613 42.5381 14.85C42.5081 14.6081 42.495 14.3775 42.495 14.1356C42.495 13.3875 42.6281 12.6638 42.8906 11.9625C43.1306 11.3325 43.8281 11.0119 44.4581 11.2631C45.0825 11.505 45.3956 12.2063 45.1575 12.8306C44.9981 13.245 44.9175 13.6875 44.9175 14.1356C44.9175 14.2838 44.9269 14.4225 44.9456 14.5706C45.0225 15.2363 44.5481 15.8325 43.8825 15.9206C43.8319 15.915 43.7869 15.9169 43.7381 15.9169ZM54.5419 15.5156C54.0562 15.5156 53.5969 15.2231 53.4112 14.745C53.3081 14.4844 53.1694 14.2294 53.0081 13.9856C52.7906 13.6688 52.5581 13.35 52.3275 13.035C51.93 12.4931 52.0406 11.7394 52.5806 11.3381C53.1187 10.9406 53.8725 11.0513 54.2756 11.5913C54.5287 11.9288 54.7725 12.2606 55.0106 12.6038C55.2787 12.9994 55.5 13.4213 55.6706 13.8638C55.92 14.4863 55.6087 15.1912 54.9881 15.4312C54.8362 15.4856 54.6919 15.5156 54.5419 15.5156ZM49.74 10.6406C49.6406 10.6406 49.5394 10.6256 49.4419 10.5975C49.1475 10.5206 48.8269 10.44 48.5569 10.4869C48.2662 10.4869 47.9794 10.5244 47.6925 10.5863C47.0419 10.7419 46.3931 10.3313 46.2375 9.68438C46.0819 9.0375 46.4906 8.38125 47.1394 8.22375C47.6119 8.10938 48.1125 8.09063 48.5812 8.06438C49.0669 8.06438 49.5581 8.11875 50.0456 8.24625C50.6925 8.40562 51.0825 9.07125 50.9175 9.71438C50.7731 10.275 50.2819 10.6387 49.7381 10.6387L49.74 10.6406ZM17.9475 56.8369C16.89 56.8369 15.8475 56.5594 14.9231 56.0287C14.0512 55.5262 13.2056 54.9769 12.39 54.3956C11.0756 53.445 10.2075 52.05 9.94312 50.4525C9.67875 48.8569 10.0537 47.2519 10.9987 45.9394C12.8756 43.3275 16.8281 42.6637 19.4569 44.5462C19.9444 44.9044 20.4525 45.2231 20.9775 45.5287C23.8669 47.1994 24.8644 50.9137 23.2031 53.8069C22.1231 55.6744 20.1131 56.835 17.9512 56.835L17.9475 56.8369ZM15.9281 45.84C14.7581 45.84 13.6537 46.4025 12.9675 47.3531C12.3994 48.1425 12.1781 49.1025 12.3356 50.0606C12.4931 51.0206 13.0125 51.8606 13.8037 52.425C14.5537 52.965 15.3319 53.4675 16.1344 53.9269C17.8369 54.9169 20.1412 54.27 21.105 52.5975C22.1025 50.8669 21.5044 48.63 19.7681 47.6325C19.1812 47.2894 18.6 46.92 18.0487 46.5225C17.4262 46.0781 16.6931 45.84 15.9319 45.84H15.9281ZM36.5344 12.4781C36.51 12.4781 36.2494 12.4688 36.2269 12.4688C35.5537 12.4219 35.0475 11.8519 35.0887 11.1844C35.1281 10.5188 35.6944 9.94875 36.3694 10.05L36.5344 10.0556C37.0594 10.0556 37.59 9.9375 38.0662 9.70875C38.6756 9.41813 39.3937 9.68812 39.6769 10.2937C39.96 10.9012 39.6975 11.6213 39.0919 11.9063C38.2912 12.2831 37.41 12.4819 36.5344 12.4819V12.4781ZM31.7681 11.3081C31.5712 11.3081 31.3631 11.2575 31.1737 11.1525C30.3244 10.6706 29.5987 9.975 29.0719 9.14063C28.71 8.58 28.8787 7.82625 29.4412 7.47375C30.0037 7.12125 30.7537 7.28063 31.1137 7.84313C31.4306 8.33813 31.8694 8.75625 32.3756 9.04313C32.955 9.38063 33.1575 10.1137 32.8312 10.6987C32.6044 11.0906 32.1919 11.3081 31.7681 11.3081ZM41.3156 8.42438C41.25 8.42438 41.1806 8.41875 41.1131 8.40938C40.4531 8.29875 40.0087 7.66875 40.1175 7.0125C40.1531 6.81 40.17 6.61312 40.17 6.4125C40.17 6.02437 40.1081 5.64562 39.9844 5.2725C39.7744 4.63312 40.1175 3.9525 40.7512 3.74063C41.3944 3.5175 42.0712 3.88313 42.2831 4.50563C42.4875 5.12063 42.585 5.76375 42.585 6.40312C42.585 6.74062 42.5569 7.06875 42.5025 7.40625C42.4106 8.00812 41.895 8.42625 41.3119 8.42625L41.3156 8.42438ZM29.7169 5.20313C29.5594 5.20313 29.4 5.16562 29.2462 5.1075C28.6312 4.84687 28.3387 4.13812 28.5994 3.52312C28.98 2.62125 29.5837 1.81125 30.345 1.18875C30.8625 0.763125 31.6275 0.841875 32.0531 1.35938C32.4787 1.87875 32.4037 2.64 31.8825 3.0675C31.4231 3.435 31.0631 3.92812 30.8344 4.46062C30.6394 4.9275 30.1894 5.20313 29.7169 5.20313ZM37.8769 2.97188C37.7775 2.97188 37.6744 2.955 37.5694 2.925C37.5619 2.92312 37.5037 2.90813 37.5 2.9025C36.7894 2.70938 36.0581 2.53688 35.3119 2.3925C34.6575 2.26313 34.2262 1.635 34.3537 0.975C34.4794 0.316875 35.1094 -0.088125 35.7712 0.015C36.5737 0.166875 37.3687 0.361875 38.1469 0.57C38.7919 0.748125 39.1969 1.42312 39.0225 2.06437C38.8819 2.61375 38.4075 2.97188 37.8769 2.97188ZM52.9819 38.1C52.8825 38.1 52.7812 38.085 52.6894 38.0606C51.735 37.8225 50.8425 37.35 50.1094 36.6937C49.6125 36.2437 49.5694 35.4844 50.0194 34.9838C50.4694 34.4831 51.2287 34.4437 51.7294 34.8881C52.17 35.2856 52.7044 35.565 53.2725 35.7075C53.925 35.8669 54.3206 36.525 54.1575 37.1756C54.0206 37.7287 53.5256 38.1 52.9819 38.1ZM57.375 37.0181C57.0394 37.0181 56.7075 36.8756 56.4694 36.6112C56.025 36.1162 56.07 35.3494 56.5687 34.9012C57.0169 34.5094 57.3544 34.0144 57.5587 33.4594C57.7931 32.8294 58.4887 32.5162 59.1187 32.745C59.7431 32.9869 60.0694 33.6769 59.8294 34.3125C59.4862 35.2294 58.9162 36.0581 58.1794 36.7181C57.9487 36.9206 57.66 37.0181 57.375 37.0181ZM49.3519 32.7581C49.3087 32.7581 49.2787 32.7525 49.2412 32.7525C48.5737 32.6925 48.0787 32.0981 48.1387 31.4381C48.1912 30.885 48.2137 30.3338 48.2137 29.7713C48.2137 29.5294 48.2287 29.2894 48.2587 29.0494C48.3394 28.3894 48.9431 27.8888 49.6069 27.99C50.2725 28.065 50.745 28.6669 50.67 29.3381C50.6494 29.4825 50.64 29.6175 50.6456 29.7713C50.6456 30.4144 50.6156 31.0369 50.5612 31.6594C50.5012 32.2875 49.9744 32.7619 49.3537 32.7619L49.3519 32.7581ZM59.1 30.4256C58.4831 30.4256 57.9525 29.9587 57.8981 29.3306C57.8437 28.7475 57.6412 28.1775 57.3187 27.6956C56.9456 27.1406 57.0956 26.385 57.6544 26.0175C58.215 25.6575 58.9612 25.8 59.3325 26.3606C59.8819 27.1781 60.2194 28.125 60.3131 29.115C60.375 29.7769 59.8875 30.375 59.2237 30.435C59.1806 30.4256 59.1394 30.4256 59.1037 30.4256H59.1ZM52.0144 26.6606C51.585 26.6606 51.165 26.4263 50.9475 26.0175C50.6306 25.4344 50.8519 24.6956 51.4444 24.375C52.3125 23.9119 53.2894 23.6625 54.2737 23.6625C54.9431 23.6625 55.5131 24.2081 55.5131 24.8756C55.5131 25.5413 54.9975 26.0812 54.3281 26.0812V24.8719L54.3225 26.0812C53.6756 26.0869 53.1131 26.2331 52.5881 26.5087C52.4025 26.6137 52.2094 26.6606 52.0144 26.6606ZM46.9725 53.1731C45.3206 53.1731 43.7831 52.515 42.6319 51.3412C41.505 50.1806 40.8919 48.6619 40.9125 47.0456C40.9331 45.42 41.58 43.905 42.7369 42.7725C43.17 42.3581 43.5787 41.9119 43.9612 41.4525C46.0369 38.9831 50.0306 38.6325 52.5037 40.7006C53.7469 41.7431 54.5044 43.1962 54.6431 44.8106C54.7856 46.4212 54.2887 47.9906 53.2462 49.2337C52.6031 50.0044 51.9169 50.7469 51.1969 51.4481C50.0625 52.56 48.5625 53.1731 46.9725 53.1731ZM48.6131 41.7075C47.5331 41.7075 46.5206 42.18 45.8306 43.005C45.3956 43.5319 44.9287 44.0325 44.4375 44.5125C43.74 45.1894 43.35 46.0969 43.3406 47.0719C43.3275 48.0412 43.6931 48.96 44.3737 49.65C45.7237 51.0431 48.1237 51.075 49.5131 49.71C50.175 49.0594 50.805 48.39 51.3975 47.6775C52.0219 46.9219 52.32 45.99 52.2375 45.015C52.155 44.0569 51.6956 43.1756 50.9531 42.5456C50.2987 42.0112 49.4662 41.7075 48.6131 41.7075ZM17.8725 14.8706C15.7219 14.8706 13.7119 13.7156 12.63 11.8631C11.8181 10.4625 11.6006 8.83312 12.0131 7.27125C12.4275 5.70562 13.425 4.39313 14.8237 3.58313C15.6862 3.075 16.5862 2.62125 17.5069 2.20125C20.475 0.849375 24.1912 2.25375 25.5319 5.20687C26.9175 8.24437 25.5694 11.8388 22.5262 13.2319C21.9712 13.4869 21.4331 13.7663 20.9156 14.07C19.9912 14.5894 18.9356 14.8706 17.8725 14.8706ZM20.0156 4.065C19.4962 4.065 18.99 4.17937 18.51 4.40062C17.6625 4.785 16.8394 5.21062 16.0444 5.67C15.2025 6.165 14.6025 6.94312 14.355 7.88812C14.1075 8.83125 14.2406 9.80625 14.7281 10.65C15.6975 12.3169 18.0112 12.9431 19.6987 11.9606C20.2894 11.6156 20.8969 11.3025 21.5212 11.0156C23.3456 10.1813 24.1537 8.025 23.3269 6.2025C22.74 4.905 21.4369 4.065 20.0175 4.065H20.0156ZM31.8731 60C28.7212 60 26.0662 57.5344 25.8337 54.3919C25.5881 51.06 28.0969 48.1519 31.4269 47.8969C32.0344 47.85 32.6344 47.7787 33.2269 47.6737C36.5775 47.0869 39.6694 49.3444 40.245 52.5919C40.5225 54.1837 40.1644 55.7869 39.2381 57.1144C38.3119 58.4419 36.9225 59.3287 35.3287 59.6044C34.3481 59.7694 33.3506 59.8987 32.3381 59.9737C32.1637 59.9944 32.0175 59.9981 31.875 59.9981L31.8731 60ZM34.2731 50.01C34.065 50.01 33.8512 50.0269 33.6375 50.0625C32.97 50.1769 32.295 50.2594 31.605 50.3156C29.6081 50.4675 28.1025 52.2131 28.2469 54.21C28.3875 56.0944 29.9775 57.5775 31.8694 57.5775L32.1619 57.5681C33.075 57.5025 33.9919 57.3825 34.905 57.2212C35.8594 57.0562 36.6956 56.5219 37.2506 55.7269C37.8112 54.9319 38.0175 53.97 37.8562 53.0137C37.5431 51.2681 36.0412 50.01 34.2731 50.01Z" fill="#8A348E"/>
</svg>
