<svg width="61" height="60" viewBox="0 0 61 60" fill="none" xmlns="http://www.w3.org/2000/svg">
<path d="M39.0731 58.7494H6.57375C5.88375 58.7494 5.32312 58.1869 5.32312 57.4987V2.49937C5.32312 1.81125 5.88375 1.24875 6.57375 1.24875H39.0731C39.7612 1.24875 40.3237 1.81125 40.3237 2.49937V26.25H37.8244V3.75H7.82437V56.25H37.8244V51.2494H40.3237V57.4987C40.3237 58.1869 39.7612 58.7494 39.0731 58.7494ZM25.32 43.7494H11.5706C10.8806 43.7494 10.32 43.1869 10.32 42.4987V7.49813C10.32 6.81 10.8806 6.2475 11.5706 6.2475H34.0706C34.7587 6.2475 35.3212 6.81 35.3212 7.49813V28.7475H32.8219V8.74688H12.8212V41.2462H25.3219V43.7456L25.32 43.7494ZM22.7044 53.4319C20.4787 53.4319 18.6694 51.6187 18.6694 49.395C18.6694 47.1712 20.4787 45.3619 22.7044 45.3619C24.93 45.3619 26.7394 47.1769 26.7394 49.395C26.7394 51.6206 24.93 53.4319 22.7044 53.4319ZM22.7044 47.8631C21.8569 47.8631 21.1687 48.5512 21.1687 49.395C21.1687 50.2425 21.8569 50.9325 22.7044 50.9325C23.5519 50.9325 24.24 50.2444 24.24 49.395C24.24 48.5494 23.55 47.8631 22.7044 47.8631ZM43.8075 53.0681C40.3294 53.0681 35.82 51.4031 31.8375 49.9275C29.6175 49.1081 27.5231 48.3356 26.1975 48.0994C24.0244 47.7112 22.7644 46.3594 22.7456 44.3962C22.7325 43.3369 23.145 42.3056 23.8725 41.5631C24.5794 40.8506 25.5206 40.4587 26.5219 40.4587L29.2744 40.5544L19.2525 30.5287C17.6981 28.9762 17.6475 26.5931 19.1344 25.1062C20.5875 23.6531 23.0362 23.7056 24.5269 25.1962L29.7375 30.4069C29.9194 30.0319 30.1669 29.6812 30.4725 29.3775C31.4981 28.3556 33.0656 28.0406 34.3969 28.53C34.5769 28.0181 34.8694 27.5381 35.2837 27.1219C36.3206 26.0812 37.9219 25.7737 39.2644 26.2969C39.4387 25.7887 39.735 25.3144 40.1437 24.9094C41.5894 23.4619 44.0681 23.5219 45.5662 25.0275L52.6031 32.0625C57.1462 36.6019 55.3462 43.0969 53.7562 45.8869C53.7037 45.9844 53.6344 46.0744 53.5556 46.1475L48.1312 51.5719C47.1412 52.5619 45.6862 53.0662 43.8056 53.0662L43.8075 53.0681ZM26.5069 42.9506C26.1019 42.9506 25.8187 43.1456 25.6537 43.3162C25.3912 43.5787 25.2412 43.9631 25.2469 44.3588C25.2487 44.7244 25.2562 45.3862 26.6419 45.6412C28.185 45.9131 30.2812 46.6912 32.7094 47.5856C36.3037 48.9112 40.7812 50.565 43.8094 50.565C45.0037 50.565 45.8625 50.3044 46.3687 49.8L51.6619 44.505C52.1794 43.5169 54.8625 37.8394 50.8425 33.8175L43.8056 26.7844C43.3312 26.3137 42.705 25.8844 41.9175 26.6644C41.3981 27.1837 41.4356 27.9544 42.0094 28.5244C42.4969 29.0119 42.4969 29.8087 42.0037 30.2925C41.5219 30.7744 40.7287 30.7744 40.2356 30.2925L38.9456 28.9931C38.4731 28.5225 37.8431 28.0912 37.0556 28.875C36.4762 29.4525 36.6656 30.2475 37.1475 30.735C37.635 31.2206 37.635 32.0175 37.1475 32.5031C36.66 32.9887 35.8669 32.9887 35.3794 32.5031L34.1287 31.2506C33.6581 30.78 33.0281 30.3506 32.2444 31.1325C32.0025 31.3744 31.8787 31.6594 31.8787 31.9781C31.8787 32.34 32.0362 32.6962 32.3344 32.9887C32.8219 33.4762 32.8219 34.2731 32.3344 34.7569C31.8469 35.2444 31.0537 35.2444 30.5662 34.7569L22.7587 26.9512C22.2112 26.4019 21.4106 26.3587 20.9006 26.8612C20.3212 27.4406 20.52 28.2544 21.0187 28.7494L33.2831 41.0119C33.6487 41.3775 33.75 41.9194 33.5437 42.3975C33.3394 42.8681 32.8537 43.1625 32.3531 43.1494L26.5031 42.9525L26.5069 42.9506Z" fill="#8A348E"/>
</svg>
